<svg width="20" height="21" viewBox="0 0 20 21" fill="none" xmlns="http://www.w3.org/2000/svg">
<path d="M16.25 18.8333C16.9404 18.8333 17.5 18.2737 17.5 17.5833C17.5 16.893 16.9404 16.3333 16.25 16.3333C15.5596 16.3333 15 16.893 15 17.5833C15 18.2737 15.5596 18.8333 16.25 18.8333Z" fill="#4D5461" stroke="#4D5461" stroke-width="1.5" stroke-linecap="round" stroke-linejoin="round"/>
<path d="M7.91669 18.8333C8.60704 18.8333 9.16669 18.2737 9.16669 17.5833C9.16669 16.893 8.60704 16.3333 7.91669 16.3333C7.22633 16.3333 6.66669 16.893 6.66669 17.5833C6.66669 18.2737 7.22633 18.8333 7.91669 18.8333Z" fill="#4D5461" stroke="#4D5461" stroke-width="1.5" stroke-linecap="round" stroke-linejoin="round"/>
<path d="M13.75 3.83334H18.3334L16.6667 13H12.9167M13.75 3.83334L12.9167 13M13.75 3.83334H8.95835M12.9167 13H9.58335M8.95835 3.83334H4.16669L5.83335 13H9.58335M8.95835 3.83334L9.58335 13" stroke="#4D5461" stroke-width="1.5" stroke-linecap="round" stroke-linejoin="round"/>
<path d="M4.16669 3.83332C4.0278 3.27777 3.33335 2.16666 1.66669 2.16666" stroke="#4D5461" stroke-width="1.5" stroke-linecap="round" stroke-linejoin="round"/>
<path d="M16.6666 13H5.83331H4.35895C2.87203 13 2.08331 13.651 2.08331 14.6667C2.08331 15.6823 2.87203 16.3333 4.35895 16.3333H16.25" stroke="#4D5461" stroke-width="1.5" stroke-linecap="round" stroke-linejoin="round"/>
</svg>
