<svg width="70" height="70" viewBox="0 0 70 70" fill="none" xmlns="http://www.w3.org/2000/svg">
<path d="M23.5 45.9V24.1C23.5 23.7686 23.7686 23.5 24.1 23.5H45.9C46.2314 23.5 46.5 23.7686 46.5 24.1V45.9C46.5 46.2314 46.2314 46.5 45.9 46.5H24.1C23.7686 46.5 23.5 46.2314 23.5 45.9Z" stroke="#6D717F" stroke-width="3" stroke-linecap="round" stroke-linejoin="round"/>
<path d="M58 12.6V57.4C58 57.7314 57.7314 58 57.4 58H12.6C12.2686 58 12 57.7314 12 57.4V12.6C12 12.2686 12.2686 12 12.6 12H57.4C57.7314 12 58 12.2686 58 12.6Z" stroke="#6D717F" stroke-width="3" stroke-linecap="round" stroke-linejoin="round"/>
<path d="M49.375 12V6.25" stroke="#6D717F" stroke-width="3" stroke-linecap="round" stroke-linejoin="round"/>
<path d="M35 12V6.25" stroke="#6D717F" stroke-width="3" stroke-linecap="round" stroke-linejoin="round"/>
<path d="M20.625 12V6.25" stroke="#6D717F" stroke-width="3" stroke-linecap="round" stroke-linejoin="round"/>
<path d="M20.625 58V63.75" stroke="#6D717F" stroke-width="3" stroke-linecap="round" stroke-linejoin="round"/>
<path d="M35 58V63.75" stroke="#6D717F" stroke-width="3" stroke-linecap="round" stroke-linejoin="round"/>
<path d="M49.375 58V63.75" stroke="#6D717F" stroke-width="3" stroke-linecap="round" stroke-linejoin="round"/>
<path d="M58 49.375H63.75" stroke="#6D717F" stroke-width="3" stroke-linecap="round" stroke-linejoin="round"/>
<path d="M58 35H63.75" stroke="#6D717F" stroke-width="3" stroke-linecap="round" stroke-linejoin="round"/>
<path d="M58 20.625H63.75" stroke="#6D717F" stroke-width="3" stroke-linecap="round" stroke-linejoin="round"/>
<path d="M12 49.375H6.25" stroke="#6D717F" stroke-width="3" stroke-linecap="round" stroke-linejoin="round"/>
<path d="M12 35H6.25" stroke="#6D717F" stroke-width="3" stroke-linecap="round" stroke-linejoin="round"/>
<path d="M12 20.625H6.25" stroke="#6D717F" stroke-width="3" stroke-linecap="round" stroke-linejoin="round"/>
</svg>
