<svg width="20" height="21" viewBox="0 0 20 21" fill="none" xmlns="http://www.w3.org/2000/svg">
<path d="M18.3334 10.5C18.3334 5.89762 14.6024 2.16666 10 2.16666C5.39765 2.16666 1.66669 5.89762 1.66669 10.5C1.66669 15.1024 5.39765 18.8333 10 18.8333" stroke="#4D5461" stroke-width="1.5" stroke-linecap="round" stroke-linejoin="round"/>
<path d="M10.8333 2.20776C10.8333 2.20776 13.3333 5.49995 13.3333 10.5" stroke="#4D5461" stroke-width="1.5" stroke-linecap="round" stroke-linejoin="round"/>
<path d="M9.16669 18.7921C9.16669 18.7921 6.66669 15.5 6.66669 10.5C6.66669 5.49995 9.16669 2.20776 9.16669 2.20776" stroke="#4D5461" stroke-width="1.5" stroke-linecap="round" stroke-linejoin="round"/>
<path d="M2.19073 13.4167H9.9994" stroke="#4D5461" stroke-width="1.5" stroke-linecap="round" stroke-linejoin="round"/>
<path d="M2.19073 7.58334H17.8081" stroke="#4D5461" stroke-width="1.5" stroke-linecap="round" stroke-linejoin="round"/>
<path fill-rule="evenodd" clip-rule="evenodd" d="M18.2326 15.4311C18.6441 15.6843 18.6188 16.3003 18.195 16.3484L16.0561 16.5908L15.0968 18.5177C14.9067 18.8996 14.3191 18.7126 14.222 18.2394L13.1759 13.1427C13.0938 12.7427 13.4533 12.491 13.8011 12.705L18.2326 15.4311Z" stroke="#4D5461" stroke-width="1.5"/>
</svg>
